<svg width="30" height="29" viewBox="0 0 30 29" fill="none" xmlns="http://www.w3.org/2000/svg">
<path d="M15 0C6.73125 0 0 5.4975 0 12.2538C0 18.305 5.3375 23.375 12.5437 24.3388C13.0325 24.4425 13.6975 24.6638 13.8663 25.0813C14.0163 25.46 13.965 26.045 13.9137 26.44L13.7088 27.7225C13.6525 28.1012 13.4088 29.2138 15.02 28.5338C16.6338 27.8563 23.665 23.4038 26.815 19.76C28.97 17.385 30 14.9513 30 12.2538C30 5.4975 23.2687 0 15 0ZM9.12875 16.2713H6.14625C5.715 16.2713 5.35875 15.9125 5.35875 15.48V9.47875C5.35875 9.045 5.715 8.68625 6.14625 8.68625C6.58125 8.68625 6.93375 9.045 6.93375 9.47875V14.6875H9.12875C9.56375 14.6875 9.915 15.0438 9.915 15.48C9.915 15.9125 9.5625 16.2713 9.12875 16.2713ZM12.2113 15.48C12.2113 15.9125 11.8588 16.2713 11.4225 16.2713C10.9913 16.2713 10.6388 15.9125 10.6388 15.48V9.47875C10.6388 9.045 10.9913 8.68625 11.4262 8.68625C11.8587 8.68625 12.2113 9.045 12.2113 9.47875V15.48ZM19.3875 15.48C19.3875 15.82 19.17 16.1213 18.8475 16.23C18.7675 16.2563 18.6812 16.2688 18.5988 16.2688C18.335 16.2688 18.11 16.155 17.9613 15.9538L14.9075 11.7813V15.4788C14.9075 15.9113 14.5588 16.27 14.1188 16.27C13.6863 16.27 13.3363 15.9113 13.3363 15.4788V9.47875C13.3363 9.13875 13.5525 8.8375 13.8738 8.73C13.9488 8.70125 14.0438 8.68875 14.1163 8.68875C14.36 8.68875 14.585 8.82 14.735 9.00875L17.8125 13.1975V9.47875C17.8125 9.045 18.165 8.68625 18.6 8.68625C19.0312 8.68625 19.3875 9.045 19.3875 9.47875V15.48ZM24.2062 11.6863C24.6425 11.6863 24.9938 12.045 24.9938 12.48C24.9938 12.9138 24.6425 13.2725 24.2062 13.2725H22.0125V14.6875H24.2062C24.6425 14.6875 24.9938 15.0438 24.9938 15.48C24.9938 15.9125 24.6425 16.2713 24.2062 16.2713H21.2238C20.7925 16.2713 20.44 15.9125 20.44 15.48V9.47875C20.44 9.045 20.7925 8.68625 21.2275 8.68625H24.21C24.6425 8.68625 24.9938 9.045 24.9938 9.47875C24.9938 9.9175 24.6425 10.2713 24.2062 10.2713H22.0125V11.6863H24.2062Z" fill="white"/>
</svg>
