<svg width="30" height="31" viewBox="0 0 30 31" fill="none" xmlns="http://www.w3.org/2000/svg">
<path d="M29.9741 14.186C29.7309 9.85591 27.7065 5.98319 24.3111 3.26979C11.6245 -6.48942 -5.31889 7.3515 1.60611 21.7261C1.69025 21.8944 1.77438 22.152 1.70602 22.4413L0.570252 27.0476C0.177191 28.4502 1.58245 29.8528 2.98902 29.4611L7.5846 28.3306C7.81596 28.2728 8.06836 28.3043 8.30497 28.4253C18.5097 33.5795 30.6351 25.6355 29.9741 14.186ZM24.0483 21.2214C23.6907 21.7104 22.1553 23.3509 21.4402 23.9398C20.5345 24.7154 19.3474 24.4906 18.2695 24.2238C11.7271 22.7107 6.56215 17.1685 5.57108 10.5208C5.47117 9.82675 5.66047 9.12217 6.0969 8.59107C6.68057 7.87595 8.32113 6.34056 8.81538 5.98825C9.45161 5.52553 10.2929 5.4309 11.0133 5.74111L11.7389 6.04609C12.2489 6.26168 12.6275 6.71389 12.7537 7.25021L13.4583 10.2316C13.6003 10.831 13.411 11.4673 12.9641 11.8932L12.0596 12.7555C12.9772 14.7129 14.5494 16.4967 16.4765 17.5456C16.8183 17.7402 17.0865 17.8769 17.281 17.9715L18.1381 17.0671C18.564 16.6254 19.2003 16.4362 19.7997 16.5781L22.7811 17.2827C23.3175 17.4089 23.7697 17.7875 23.9852 18.2923L24.2955 19.0232C24.6057 19.7423 24.5044 20.5838 24.0483 21.2214ZM15.8243 6.79825C19.7391 6.90999 23.1201 10.2937 23.2383 14.2122C23.254 14.6487 22.9175 15.0167 22.4863 15.0378C22.0525 15.0562 21.6818 14.7209 21.6608 14.2858C21.5701 11.1585 18.87 8.46361 15.7507 8.37039C14.7149 8.31255 14.7884 6.76278 15.8243 6.79825ZM20.0833 14.3596C20.1109 15.3968 18.5742 15.4678 18.5059 14.4332C18.4704 12.9018 17.1348 11.5623 15.6033 11.5255C15.1669 11.5044 14.8304 11.1364 14.8462 10.7052C14.8672 10.2687 15.2353 9.91643 15.6717 9.948C18.0037 10.0098 20.0177 12.0356 20.0833 14.3596Z" fill="white"/>
<path d="M22.5338 18.9132C22.5128 18.8659 22.4707 18.8291 22.4182 18.8185L19.4367 18.1139C19.3789 18.0981 19.3211 18.1139 19.279 18.156L18.2642 19.2234C17.8908 19.6178 17.3072 19.7282 16.8182 19.4968C14.5401 18.4912 12.3198 16.5798 11.1131 14.3282C9.87738 12.2748 10.3901 12.167 11.8755 10.7526C11.9176 10.7105 11.9333 10.6527 11.9228 10.5948L11.2182 7.61343C11.2077 7.56085 11.1709 7.51878 11.1236 7.49775C10.7541 7.37024 10.1245 6.92724 9.74064 7.26639C9.33577 7.55559 7.80562 8.99108 7.31662 9.59049C7.16413 9.77979 7.09577 10.0374 7.13258 10.2951C8.03961 16.3078 12.7061 21.3217 18.6269 22.6886C19.2408 22.7793 19.9125 23.1185 20.441 22.7149C21.0457 22.2259 22.4759 20.6958 22.7704 20.2962C23.1003 19.8965 22.6719 19.301 22.5338 18.9132Z" fill="white"/>
</svg>
