<svg width="22" height="22" viewBox="0 0 22 22" fill="none" xmlns="http://www.w3.org/2000/svg">
<g clip-path="url(#clip0_249_103)">
<path d="M11 0C4.92581 0 0 4.92581 0 11C0 17.0742 4.92581 22 11 22C17.0742 22 22 17.0742 22 11C22 4.92581 17.0742 0 11 0ZM16.5185 8.41642V9.90584C15.8162 9.9061 15.1338 9.76847 14.4902 9.49695C14.0763 9.32224 13.6908 9.09713 13.3381 8.82509L13.3487 13.4096C13.3443 14.4419 12.9359 15.4118 12.1967 16.1424C11.5951 16.7371 10.8329 17.1153 10.0066 17.2377C9.81252 17.2664 9.61495 17.2812 9.41514 17.2812C8.53071 17.2812 7.69106 16.9947 7.00421 16.4661C6.87496 16.3665 6.75134 16.2586 6.63364 16.1424C5.83253 15.3506 5.41943 14.2775 5.489 13.1486C5.54207 12.2893 5.88612 11.4697 6.45966 10.8274C7.21849 9.97739 8.28008 9.50559 9.41514 9.50559C9.61495 9.50559 9.81252 9.52059 10.0066 9.54933V10.1V11.6319C9.82257 11.5712 9.62599 11.5378 9.42129 11.5378C8.38428 11.5378 7.54531 12.3839 7.56082 13.4217C7.57066 14.0857 7.93336 14.6661 8.46832 14.986C8.71973 15.1364 9.00896 15.2296 9.3176 15.2465C9.55943 15.2598 9.79163 15.2261 10.0066 15.1551C10.7476 14.9104 11.282 14.2144 11.282 13.3937L11.2845 10.3237V4.71883H13.3357C13.3376 4.92207 13.3583 5.12037 13.3966 5.31253C13.5514 6.0903 13.9898 6.76509 14.6 7.22511C15.132 7.62639 15.7945 7.86427 16.5125 7.86427C16.513 7.86427 16.5189 7.86427 16.5184 7.8638V8.41642H16.5185Z" fill="#093165"/>
</g>
<defs>
<clipPath id="clip0_249_103">
<rect width="22" height="22" fill="white"/>
</clipPath>
</defs>
</svg>
