<svg width="50" height="50" viewBox="0 0 50 50" fill="none" xmlns="http://www.w3.org/2000/svg">
<path d="M25 50C20.0555 50 15.222 48.5338 11.1108 45.7867C6.99952 43.0397 3.79521 39.1352 1.90302 34.5671C0.0108321 29.9989 -0.484251 24.9723 0.480379 20.1228C1.44501 15.2732 3.82603 10.8187 7.32234 7.32234C10.8187 3.82603 15.2732 1.44501 20.1228 0.480379C24.9723 -0.484251 29.9989 0.0108321 34.5671 1.90302C39.1352 3.79521 43.0397 6.99952 45.7867 11.1108C48.5338 15.222 50 20.0555 50 25C49.9925 31.6281 47.3561 37.9826 42.6693 42.6693C37.9826 47.3561 31.6281 49.9925 25 50ZM37.5 25C37.5 24.337 37.2366 23.7011 36.7678 23.2322C36.2989 22.7634 35.663 22.5 35 22.5H15C14.337 22.5 13.7011 22.7634 13.2322 23.2322C12.7634 23.7011 12.5 24.337 12.5 25C12.5 25.663 12.7634 26.2989 13.2322 26.7678C13.7011 27.2366 14.337 27.5 15 27.5H35C35.663 27.5 36.2989 27.2366 36.7678 26.7678C37.2366 26.2989 37.5 25.663 37.5 25Z" fill="#042044"/>
</svg>
