<svg width="30" height="30" viewBox="0 0 30 30" fill="none" xmlns="http://www.w3.org/2000/svg">
<path d="M15 0C6.73131 0 0 6.72583 0 15C0.827691 34.8991 29.1789 34.8936 30 15C30 6.72583 23.2742 0 15 0ZM23.7216 16.3207C23.7002 18.0885 22.243 19.531 20.4738 19.531C19.6113 19.531 18.8265 19.1935 18.2479 18.6363C17.585 19.7359 16.3796 20.4685 15.0001 20.4685C12.9001 20.4685 11.1951 18.7635 11.1951 16.6634V14.2741C11.392 9.23037 18.6094 9.23037 18.8062 14.2741V16.2791C18.8732 18.4768 22.0473 18.4969 22.1437 16.3005C22.2924 13.2992 21.9816 11.4041 19.9379 9.36449C15.3402 4.93135 7.89915 8.45379 7.84293 14.7857V16.4009C7.84293 18.2223 8.5273 19.9539 9.76347 21.2746C10.4545 22.042 9.32554 23.1041 8.60499 22.3541C7.0943 20.7389 6.26259 18.6228 6.26259 16.4011V14.7859C6.26259 10.1333 10.0728 6.0228 14.5783 5.81263C19.4184 5.47245 23.8488 9.69926 23.7418 14.5449C23.7418 14.5502 23.7364 15.3926 23.7204 16.3234L23.7216 16.3207Z" fill="white"/>
<path d="M14.9999 12.0469C13.7732 12.0469 12.774 13.0473 12.774 14.2728V16.6621C12.8691 19.6031 17.1321 19.6031 17.2271 16.6621V14.2728C17.2271 13.046 16.2266 12.0469 15.0012 12.0469H14.9999Z" fill="white"/>
</svg>
