<svg width="62" height="56" viewBox="0 0 62 56" fill="none" xmlns="http://www.w3.org/2000/svg">
<path d="M23.3589 37.5708C22.1905 37.7659 21.0879 37.8952 20.0487 37.8952C10.1867 37.8952 2.20506 29.9136 2.20506 20.0516C2.20506 10.1895 10.1867 2.20792 20.0487 2.20792C27.2523 2.20792 33.741 6.49143 36.4655 13.1724C36.724 13.7553 37.3729 14.0164 37.8925 13.7553C38.4754 13.4968 38.7365 12.8479 38.4754 12.3283C35.3604 4.86645 28.0937 0 19.9829 0C9.0185 0.00253445 0 9.02045 0 20.1173C0 31.1479 9.01786 40.1657 20.0485 40.1657C21.2803 40.1657 22.578 40.0365 23.9416 39.7754C24.4612 39.6461 24.849 39.1924 24.849 38.6729C24.8515 37.8947 24.0737 37.3756 23.3589 37.5708Z" fill="white"/>
<path d="M57.6823 30.953C56.9042 30.953 56.2554 31.1482 55.6065 31.536C55.0235 30.109 53.594 29.0698 51.9085 29.0698C51.1304 29.0698 50.3523 29.3284 49.7668 29.7187C49.1179 28.421 47.7542 27.4477 46.198 27.4477C45.5492 27.4477 44.9662 27.6428 44.4466 27.9014V19.727C44.4466 17.5219 42.6293 15.7679 40.4875 15.7679C38.2825 15.7679 36.5285 17.5853 36.5285 19.727V38.9975L33.7404 36.468C32.9623 35.7532 31.923 35.3655 30.8864 35.4288C29.7839 35.4947 28.8739 36.0117 28.1617 36.7924C26.9299 38.2194 26.9299 40.2952 28.1617 41.7248L36.4678 51.8483C38.6095 54.5097 41.8538 56 45.2274 56H51.716C57.2313 56 61.6442 51.5239 61.6442 46.0718L61.6417 34.975C61.6417 32.7699 59.8241 30.953 57.6823 30.953ZM59.4363 46.0721C59.4363 50.3556 55.9968 53.7923 51.7161 53.7923H45.2275C42.5028 53.7923 39.9074 52.5605 38.1562 50.482L29.8476 40.3611C29.328 39.7782 29.328 38.8682 29.8476 38.2853C30.172 37.9609 30.5624 37.7023 31.0161 37.7023C31.4698 37.6364 31.9234 37.8316 32.2479 38.156L36.7899 42.4395C37.1143 42.764 37.568 42.8299 38.0217 42.6347C38.412 42.4395 38.6705 42.0517 38.6705 41.5955L38.6731 19.727C38.6731 18.7537 39.4512 17.9756 40.4245 17.9756C41.3978 17.9756 42.1759 18.7537 42.1759 19.727V34.131C42.1759 34.714 42.6955 35.2335 43.2784 35.2335C43.8614 35.2335 44.381 34.714 44.381 34.131V31.5356C44.381 30.5623 45.1591 29.7842 46.1324 29.7842C47.1057 29.7842 47.8838 30.5623 47.8838 31.5356V33.1577L47.8863 35.1702C47.8863 35.7532 48.4059 36.2728 48.9888 36.2728C49.5718 36.2728 50.0914 35.7532 50.0914 35.1702V33.0285C50.0914 32.0552 50.8695 31.2771 51.8428 31.2771C52.8161 31.2771 53.5942 32.0552 53.5942 33.0285V36.2728C53.5942 36.8557 54.1138 37.3753 54.6967 37.3753C55.2797 37.3753 55.7993 36.8557 55.7993 36.2728V34.975C55.7993 34.0018 56.5774 33.2236 57.5507 33.2236C58.524 33.2236 59.3021 34.0018 59.3021 34.975L59.3046 46.0718L59.4363 46.0721Z" fill="white"/>
<path d="M27.901 13.7582L17.5854 24.0738L12.8482 19.3366C12.3945 18.8829 11.6797 18.8829 11.292 19.3366C10.8383 19.7903 10.8383 20.5051 11.292 20.8928L16.8732 26.4741C17.0684 26.6692 17.3928 26.7985 17.6513 26.7985C17.9098 26.7985 18.2343 26.6692 18.4294 26.4741L29.5262 15.3773C29.9799 14.9236 29.9799 14.2088 29.5262 13.821C29.0041 13.304 28.2919 13.304 27.9015 13.7577L27.901 13.7582Z" fill="white"/>
</svg>
