<svg width="22" height="22" viewBox="0 0 22 22" fill="none" xmlns="http://www.w3.org/2000/svg">
<path d="M11 0C4.93625 0 0 4.0315 0 8.98608C0 13.4237 3.91417 17.1417 9.19875 17.8484C9.55717 17.9245 10.0448 18.0868 10.1686 18.3929C10.2786 18.6707 10.241 19.0997 10.2034 19.3893L10.0531 20.3298C10.0118 20.6076 9.83308 21.4234 11.0147 20.9248C12.1981 20.4279 17.3543 17.1628 19.6643 14.4907C21.2447 12.749 22 10.9643 22 8.98608C22 4.0315 17.0637 0 11 0ZM6.69442 11.9323H4.50725C4.191 11.9323 3.92975 11.6692 3.92975 11.352V6.95108C3.92975 6.633 4.191 6.36992 4.50725 6.36992C4.82625 6.36992 5.08475 6.633 5.08475 6.95108V10.7708H6.69442C7.01342 10.7708 7.271 11.0321 7.271 11.352C7.271 11.6692 7.0125 11.9323 6.69442 11.9323ZM8.95492 11.352C8.95492 11.6692 8.69642 11.9323 8.3765 11.9323C8.06025 11.9323 7.80175 11.6692 7.80175 11.352V6.95108C7.80175 6.633 8.06025 6.36992 8.37925 6.36992C8.69642 6.36992 8.95492 6.633 8.95492 6.95108V11.352ZM14.2175 11.352C14.2175 11.6013 14.058 11.8223 13.8215 11.902C13.7628 11.9213 13.6996 11.9304 13.6391 11.9304C13.4457 11.9304 13.2807 11.847 13.1716 11.6994L10.9322 8.63958V11.3511C10.9322 11.6683 10.6764 11.9313 10.3538 11.9313C10.0366 11.9313 9.77992 11.6683 9.77992 11.3511V6.95108C9.77992 6.70175 9.9385 6.48083 10.1741 6.402C10.2291 6.38092 10.2988 6.37175 10.3519 6.37175C10.5307 6.37175 10.6957 6.468 10.8057 6.60642L13.0625 9.67817V6.95108C13.0625 6.633 13.321 6.36992 13.64 6.36992C13.9563 6.36992 14.2175 6.633 14.2175 6.95108V11.352ZM17.7512 8.56992C18.0712 8.56992 18.3288 8.833 18.3288 9.152C18.3288 9.47008 18.0712 9.73317 17.7512 9.73317H16.1425V10.7708H17.7512C18.0712 10.7708 18.3288 11.0321 18.3288 11.352C18.3288 11.6692 18.0712 11.9323 17.7512 11.9323H15.5641C15.2478 11.9323 14.9893 11.6692 14.9893 11.352V6.95108C14.9893 6.633 15.2478 6.36992 15.5668 6.36992H17.754C18.0712 6.36992 18.3288 6.633 18.3288 6.95108C18.3288 7.27283 18.0712 7.53225 17.7512 7.53225H16.1425V8.56992H17.7512Z" fill="#093165"/>
</svg>
