<svg width="22" height="22" viewBox="0 0 22 22" fill="none" xmlns="http://www.w3.org/2000/svg">
<g clip-path="url(#clip0_249_99)">
<path d="M22 11C22 16.4905 17.9773 21.0414 12.7188 21.8664V14.1797H15.2818L15.7695 11H12.7188V8.93664C12.7188 8.06652 13.145 7.21875 14.5114 7.21875H15.8984V4.51172C15.8984 4.51172 14.6395 4.29688 13.4359 4.29688C10.9235 4.29688 9.28125 5.81969 9.28125 8.57656V11H6.48828V14.1797H9.28125V21.8664C4.02273 21.0414 0 16.4905 0 11C0 4.92508 4.92508 0 11 0C17.0749 0 22 4.92508 22 11Z" fill="#093165"/>
<path d="M15.2818 14.1797L15.7695 11H12.7188V8.9366C12.7188 8.0667 13.1449 7.21875 14.5114 7.21875H15.8984V4.51172C15.8984 4.51172 14.6396 4.29688 13.4361 4.29688C10.9235 4.29688 9.28125 5.81969 9.28125 8.57656V11H6.48828V14.1797H9.28125V21.8663C9.8413 21.9542 10.4153 22 11 22C11.5847 22 12.1587 21.9542 12.7188 21.8663V14.1797H15.2818Z" fill="white"/>
</g>
<defs>
<clipPath id="clip0_249_99">
<rect width="22" height="22" fill="white"/>
</clipPath>
</defs>
</svg>
