<svg width="45" height="45" viewBox="0 0 45 45" fill="none" xmlns="http://www.w3.org/2000/svg">
<path d="M6.75 3.9375C6.75 1.7622 8.5122 0 10.6875 0H41.0625C43.2378 0 45 1.7622 45 3.9375V26.4375C45 28.6128 43.2378 30.375 41.0625 30.375H39.375V10.6875C39.375 7.89255 37.1075 5.625 34.3125 5.625H6.75V3.9375Z" fill="white"/>
<path fill-rule="evenodd" clip-rule="evenodd" d="M3.9375 6.75C1.7622 6.75 0 8.5122 0 10.6875V33.1875C0 35.3628 1.7622 37.125 3.9375 37.125H5.625V44.4375C5.625 44.6528 5.74805 44.8484 5.94141 44.9429C6.13477 45.0374 6.36548 45.0132 6.53468 44.8792L16.4049 37.1251H34.3126C36.4879 37.1251 38.2501 35.3629 38.2501 33.1876V10.6876C38.2501 8.51229 36.4879 6.75009 34.3126 6.75009L3.9375 6.75ZM10.125 18.5625C8.26172 18.5625 6.75 20.0742 6.75 21.9375C6.75 23.8008 8.26172 25.3125 10.125 25.3125C11.9883 25.3125 13.5 23.8008 13.5 21.9375C13.5 20.0742 11.9883 18.5625 10.125 18.5625ZM19.125 18.5625C17.2617 18.5625 15.75 20.0742 15.75 21.9375C15.75 23.8008 17.2617 25.3125 19.125 25.3125C20.9883 25.3125 22.5 23.8008 22.5 21.9375C22.5 20.0742 20.9883 18.5625 19.125 18.5625ZM24.75 21.9375C24.75 20.0742 26.2617 18.5625 28.125 18.5625C29.9883 18.5625 31.5 20.0742 31.5 21.9375C31.5 23.8008 29.9883 25.3125 28.125 25.3125C26.2617 25.3125 24.75 23.8008 24.75 21.9375Z" fill="white"/>
</svg>
