<svg width="30" height="30" viewBox="0 0 30 30" fill="none" xmlns="http://www.w3.org/2000/svg">
<path d="M12.7731 17.5616L17.2269 15L12.7731 12.4385V17.5616Z" fill="white"/>
<path d="M15 0C12.0333 0 9.13319 0.879735 6.66645 2.52796C4.19971 4.17618 2.27713 6.51886 1.14181 9.25975C0.00649927 12.0006 -0.290551 15.0166 0.288227 17.9264C0.867006 20.8361 2.29562 23.5088 4.3934 25.6066C6.49119 27.7044 9.16393 29.133 12.0736 29.7118C14.9834 30.2906 17.9994 29.9935 20.7403 28.8582C23.4811 27.7229 25.8238 25.8003 27.472 23.3335C29.1203 20.8668 30 17.9667 30 15C30 11.0218 28.4196 7.20644 25.6066 4.3934C22.7936 1.58035 18.9783 0 15 0ZM24.8077 18.225C24.8077 19.1431 24.443 20.0235 23.7938 20.6727C23.1447 21.3218 22.2642 21.6865 21.3462 21.6865H8.65385C7.73579 21.6865 6.85534 21.3218 6.20617 20.6727C5.55701 20.0235 5.19231 19.1431 5.19231 18.225V11.775C5.19231 10.8569 5.55701 9.97648 6.20617 9.32732C6.85534 8.67816 7.73579 8.31346 8.65385 8.31346H21.3462C22.2642 8.31346 23.1447 8.67816 23.7938 9.32732C24.443 9.97648 24.8077 10.8569 24.8077 11.775V18.225Z" fill="white"/>
</svg>
