<svg width="56" height="56" viewBox="0 0 56 56" fill="none" xmlns="http://www.w3.org/2000/svg">
<path d="M0 16V50C0 53.308 2.692 56 6 56H50C53.308 56 56 53.308 56 50V16H0ZM37.314 39.464L26 46C25.374 46.362 24.688 46.542 24 46.542C23.312 46.542 22.624 46.362 22 46C20.748 45.278 20 43.982 20 42.538V29.468C20 28.022 20.748 26.728 22 26.006C23.25 25.28 24.746 25.282 26 26.006L37.314 32.542C38.566 33.264 39.314 34.56 39.314 36.006C39.314 37.452 38.566 38.748 37.314 39.47V39.464ZM56 12V6C56 2.692 53.308 0 50 0H6C2.692 0 0 2.692 0 6V12H56ZM46 4C47.104 4 48 4.896 48 6C48 7.104 47.104 8 46 8C44.896 8 44 7.104 44 6C44 4.896 44.896 4 46 4ZM38 4C39.104 4 40 4.896 40 6C40 7.104 39.104 8 38 8C36.896 8 36 7.104 36 6C36 4.896 36.896 4 38 4ZM23.99 29.46L35.314 36L24 42.536L23.99 29.462V29.46Z" fill="white"/>
</svg>
