<svg width="71" height="56" viewBox="0 0 71 56" fill="none" xmlns="http://www.w3.org/2000/svg">
<path d="M69.0265 33.1129C68.0526 32.2606 66.7134 31.8955 65.3743 32.1389L61.6004 32.7476C63.5482 29.4606 64.5221 25.6868 64.5221 21.913C64.5221 9.86067 54.6615 0 42.6091 0C30.5567 0 20.696 9.86067 20.696 21.913C20.696 23.4956 20.9395 25.2 21.183 26.7826L11.687 29.9478C11.0783 28.8522 9.86083 28 8.52174 28H3.65217C1.58265 28 0 29.5826 0 31.6522V51.1304C0 53.2 1.58257 54.7826 3.65217 54.7826H8.52174C9.98261 54.7826 11.3218 53.9304 11.9304 52.5913L30.6779 56H31.2866C31.7735 56 32.2605 55.8783 32.7474 55.7565L67.8083 40.9047C69.5127 40.1743 70.6083 38.5917 70.6083 36.7656C70.6083 35.3047 70.0004 34.0868 69.0265 33.1129ZM42.6093 2.43459C53.3224 2.43459 62.0876 11.1998 62.0876 21.9128C62.0876 26.052 60.7484 29.9472 58.3136 33.3567L54.6615 33.9654C57.8267 30.8002 59.6527 26.5394 59.6527 21.913C59.6527 12.5393 51.9831 4.86957 42.6092 4.86957C33.2354 4.86957 25.5658 12.5392 25.5658 21.913C25.5658 23.1304 25.6875 24.4695 26.0527 25.687C25.444 25.5653 24.8353 25.5653 24.2266 25.8087L23.6179 26.0522C23.2527 24.5913 23.1309 23.2522 23.1309 21.9131C23.1309 11.2 31.8963 2.43459 42.6093 2.43459ZM42.6093 20.6958C45.2876 20.6958 47.4789 22.8872 47.4789 25.5654C47.4789 27.8785 45.8963 29.7045 43.8267 30.3133V31.6524C43.8267 32.3829 43.3398 32.8698 42.6093 32.8698C41.8789 32.8698 41.3919 32.3829 41.3919 31.6524V30.4351H38.9571C38.2267 30.4351 37.7398 29.9481 37.7398 29.2177C37.7398 28.4872 38.2267 28.0003 38.9571 28.0003H42.6093C43.9485 28.0003 45.0441 26.9047 45.0441 25.5655C45.0441 24.2263 43.9485 23.1307 42.6093 23.1307C39.9311 23.1307 37.7398 20.9394 37.7398 18.2611C37.7398 15.9481 39.3223 14.122 41.3919 13.5133V12.1741C41.3919 11.4437 41.8789 10.9567 42.6093 10.9567C43.3398 10.9567 43.8267 11.4437 43.8267 12.1741V13.3915H46.2615C46.9919 13.3915 47.4789 13.8785 47.4789 14.6089C47.4789 15.3393 46.9919 15.8263 46.2615 15.8263H42.6093C41.2702 15.8263 40.1745 16.9219 40.1745 18.2611C40.1745 19.6002 41.2702 20.6958 42.6093 20.6958ZM66.8356 38.5917L31.8963 53.4435C31.6528 53.5652 31.4093 53.5652 31.1658 53.5652L12.1745 50.1565V32.383L24.957 28.1221C25.3222 28.0004 25.6874 28.0004 25.9309 28.2438L37.2524 34.8177C38.1046 35.3047 38.7133 36.1569 38.9568 37.1308C39.2002 38.1047 38.835 39.2003 38.2263 39.9309C37.1307 41.27 35.3046 41.5134 33.8437 40.6613L27.5133 36.6439C26.9046 36.2787 26.1741 36.4005 25.8089 37.0092C25.4438 37.6179 25.5655 38.3483 26.1741 38.7135L32.5046 42.7309C33.4785 43.3396 34.5741 43.5831 35.548 43.5831C37.2524 43.5831 38.9567 42.8526 40.0523 41.5135C40.661 40.6613 41.1479 39.8092 41.2697 38.7135L65.7391 34.5744C66.3478 34.4526 66.9565 34.5744 67.4434 35.0613C67.9304 35.4266 68.1739 36.0352 68.1739 36.6439C68.1739 37.4961 67.6878 38.2264 66.8356 38.5917Z" fill="white"/>
</svg>
