<svg width="44" height="55" viewBox="0 0 44 55" fill="none" xmlns="http://www.w3.org/2000/svg">
<path d="M21.9298 23.6274C24.5322 23.6274 27.0762 22.9375 29.24 21.6447C31.4038 20.352 33.0902 18.5146 34.0861 16.3649C35.082 14.2152 35.3426 11.8497 34.8349 9.56755C34.3272 7.28542 33.074 5.18915 31.2339 3.54383C29.3937 1.89851 27.0492 0.778027 24.4968 0.324083C21.9444 -0.129861 19.2988 0.10312 16.8945 0.993563C14.4902 1.88401 12.4352 3.39192 10.9894 5.32661C9.54363 7.26131 8.77193 9.53589 8.77193 11.8627C8.77576 14.9819 10.1633 17.9723 12.63 20.1779C15.0968 22.3834 18.4413 23.624 21.9298 23.6274ZM21.9298 4.0196C23.6647 4.0196 25.3607 4.47959 26.8032 5.3414C28.2458 6.20322 29.3701 7.42815 30.034 8.8613C30.698 10.2944 30.8717 11.8714 30.5332 13.3929C30.1947 14.9143 29.3593 16.3118 28.1325 17.4087C26.9057 18.5056 25.3427 19.2525 23.6411 19.5552C21.9396 19.8578 20.1758 19.7025 18.573 19.1088C16.9701 18.5152 15.6001 17.5099 14.6362 16.2201C13.6724 14.9303 13.1579 13.414 13.1579 11.8627C13.1604 9.78329 14.0854 7.78965 15.7299 6.31926C17.3744 4.84887 19.6041 4.02183 21.9298 4.0196ZM24.1228 53.0392C24.1228 53.5592 23.8918 54.058 23.4805 54.4257C23.0692 54.7934 22.5114 55 21.9298 55H8.77193C6.44624 54.9978 4.21651 54.1707 2.572 52.7003C0.927481 51.2299 0.00249611 49.2363 1.13555e-08 47.1568V45.1961C-0.000143302 41.2132 1.35624 37.3248 3.88864 34.0482C6.42104 30.7716 10.0094 28.2623 14.1761 26.8541C18.3429 25.4459 22.8905 25.2056 27.2137 26.1653C31.5369 27.1249 35.4308 29.2389 38.3772 32.2261C38.762 32.6161 38.9577 33.1268 38.9214 33.6459C38.885 34.165 38.6195 34.6499 38.1833 34.9939C37.7471 35.338 37.1759 35.513 36.5954 35.4805C36.0148 35.448 35.4725 35.2106 35.0877 34.8206C32.7307 32.4309 29.6156 30.7397 26.1571 29.972C22.6985 29.2042 19.0605 29.3964 15.7271 30.5229C12.3938 31.6494 9.52308 33.6568 7.49712 36.278C5.47115 38.8992 4.38597 42.0098 4.38596 45.1961V47.1568C4.3873 48.1965 4.84982 49.1933 5.67206 49.9285C6.4943 50.6637 7.60911 51.0772 8.77193 51.0784H21.9298C22.5114 51.0784 23.0692 51.285 23.4805 51.6527C23.8918 52.0204 24.1228 52.5192 24.1228 53.0392ZM43.8596 47.1568C43.8596 47.6769 43.6286 48.1756 43.2173 48.5433C42.8061 48.9111 42.2483 49.1176 41.6667 49.1176H37.2807V53.0392C37.2807 53.5592 37.0497 54.058 36.6384 54.4257C36.2271 54.7934 35.6693 55 35.0877 55C34.5061 55 33.9483 54.7934 33.537 54.4257C33.1258 54.058 32.8947 53.5592 32.8947 53.0392V49.1176H28.5088C27.9272 49.1176 27.3694 48.9111 26.9581 48.5433C26.5468 48.1756 26.3158 47.6769 26.3158 47.1568C26.3158 46.6368 26.5468 46.1381 26.9581 45.7704C27.3694 45.4026 27.9272 45.1961 28.5088 45.1961H32.8947V41.2745C32.8947 40.7545 33.1258 40.2557 33.537 39.888C33.9483 39.5203 34.5061 39.3137 35.0877 39.3137C35.6693 39.3137 36.2271 39.5203 36.6384 39.888C37.0497 40.2557 37.2807 40.7545 37.2807 41.2745V45.1961H41.6667C42.2483 45.1961 42.8061 45.4026 43.2173 45.7704C43.6286 46.1381 43.8596 46.6368 43.8596 47.1568Z" fill="white"/>
</svg>
