<svg width="30" height="30" viewBox="0 0 30 30" fill="none" xmlns="http://www.w3.org/2000/svg">
<path d="M15 0C6.71701 0 0 6.71701 0 15C0 23.283 6.71701 30 15 30C23.283 30 30 23.283 30 15C30 6.71701 23.283 0 15 0ZM22.5252 11.4769V13.508C21.5675 13.5083 20.637 13.3206 19.7593 12.9504C19.195 12.7121 18.6693 12.4052 18.1884 12.0342L18.2028 18.2858C18.1968 19.6935 17.6398 21.0161 16.6318 22.0124C15.8115 22.8233 14.7721 23.339 13.6454 23.5059C13.3807 23.5451 13.1113 23.5652 12.8388 23.5652C11.6328 23.5652 10.4878 23.1745 9.55119 22.4537C9.37494 22.318 9.20637 22.1709 9.04588 22.0124C7.95346 20.9327 7.39014 19.4694 7.485 17.9299C7.55736 16.7581 8.02652 15.6405 8.80863 14.7646C9.8434 13.6055 11.291 12.9622 12.8388 12.9622C13.1113 12.9622 13.3807 12.9826 13.6454 13.0218V13.7728V15.8617C13.3944 15.7789 13.1263 15.7334 12.8472 15.7334C11.4331 15.7334 10.2891 16.8871 10.3102 18.3023C10.3236 19.2077 10.8182 19.9992 11.5477 20.4355C11.8905 20.6406 12.2849 20.7676 12.7058 20.7907C13.0356 20.8088 13.3522 20.7629 13.6454 20.6661C14.6558 20.3323 15.3846 19.3833 15.3846 18.2641L15.3879 14.0777V6.43477H18.185C18.1877 6.71191 18.2158 6.98232 18.2681 7.24436C18.4792 8.30496 19.077 9.22512 19.909 9.85242C20.6346 10.3996 21.5379 10.724 22.5171 10.724C22.5178 10.724 22.5258 10.724 22.5251 10.7234V11.4769H22.5252Z" fill="white"/>
</svg>
